2014001_C3_03_grf
version=1
nRows=15
nColumns=19
inDegrees=no
endheader
time	ground_force_1_vx	ground_force_1_vy	ground_force_1_vz	ground_force_1_px	ground_force_1_py	ground_force_1_pz	ground_force_1_mx	ground_force_1_my	ground_force_1_mz	ground_force_2_vx	ground_force_2_vy	ground_force_2_vz	ground_force_2_px	ground_force_2_py	ground_force_2_pz	ground_force_2_mx	ground_force_2_my	ground_force_2_mz
      0.45700000	     31.60424419	    601.54646635	     -6.15565944	      0.16194865	     -0.00200000	      0.25386485	      0.00000000	      0.65599637	      0.00000000	      0.00000000	      0.00000000	      0.00000000	      0.00000000	      0.00000000	      0.00000000	      0.00000000	      0.00000000	      0.00000000
      0.45800000	     31.80196807	    602.31554508	     -5.82574308	      0.16192396	     -0.00200000	      0.25405799	     -0.00000000	      0.65311631	      0.00000000	      0.00000000	      0.00000000	      0.00000000	      0.00000000	      0.00000000	      0.00000000	      0.00000000	      0.00000000	      0.00000000
      0.45900000	     31.99902698	    603.07717323	     -5.49708377	      0.16189909	     -0.00200000	      0.25425252	     -0.00000000	      0.65037926	      0.00000000	      0.00000000	      0.00000000	      0.00000000	      0.00000000	      0.00000000	      0.00000000	      0.00000000	      0.00000000	      0.00000000
      0.46000000	     32.19545223	    603.83301973	     -5.16946008	      0.16187412	     -0.00200000	      0.25444809	      0.00000000	      0.64777367	      0.00000000	      0.00000000	      0.00000000	      0.00000000	      0.00000000	      0.00000000	      0.00000000	      0.00000000	      0.00000000	      0.00000000
      0.46100000	     32.39097390	    604.58192229	     -4.84315585	      0.16184908	     -0.00200000	      0.25464490	      0.00000000	      0.64535317	      0.00000000	      0.00000000	      0.00000000	      0.00000000	      0.00000000	      0.00000000	      0.00000000	      0.00000000	      0.00000000	      0.00000000
      0.46200000	     32.58569241	    605.32534122	     -4.51791845	      0.16182399	     -0.00200000	      0.25484264	      0.00000000	      0.64309704	      0.00000000	      0.00000000	      0.00000000	      0.00000000	      0.00000000	      0.00000000	      0.00000000	      0.00000000	      0.00000000	      0.00000000
      0.46300000	     32.77931958	    606.06214404	     -4.19401634	      0.16179892	     -0.00200000	      0.25504147	      0.00000000	      0.64106659	      0.00000000	      0.00000000	      0.00000000	      0.00000000	      0.00000000	      0.00000000	      0.00000000	      0.00000000	      0.00000000	      0.00000000
      0.46400000	     32.97200538	    606.79370165	     -3.87117057	      0.16177389	     -0.00200000	      0.25524111	      0.00000000	      0.63923198	      0.00000000	      0.00000000	      0.00000000	      0.00000000	      0.00000000	      0.00000000	      0.00000000	      0.00000000	      0.00000000	      0.00000000
      0.46500000	     33.16345252	    607.51897097	     -3.54960503	      0.16174898	     -0.00200000	      0.25544167	      0.00000000	      0.63765799	      0.00000000	      0.00000000	      0.00000000	      0.00000000	      0.00000000	      0.00000000	      0.00000000	      0.00000000	      0.00000000	      0.00000000
      0.46600000	     33.35385658	    608.23929310	     -3.22900969	      0.16172420	     -0.00200000	      0.25564289	      0.00000000	      0.63630301	      0.00000000	      0.00000000	      0.00000000	      0.00000000	      0.00000000	      0.00000000	      0.00000000	      0.00000000	      0.00000000	      0.00000000
      0.46700000	     33.54290593	    608.95362496	     -2.90953275	      0.16169963	     -0.00200000	      0.25584486	      0.00000000	      0.63523234	      0.00000000	      0.00000000	      0.00000000	      0.00000000	      0.00000000	      0.00000000	      0.00000000	      0.00000000	      0.00000000	      0.00000000
      0.46800000	     33.73083398	    609.66330767	     -2.59086303	      0.16167526	     -0.00200000	      0.25604734	      0.00000000	      0.63439689	      0.00000000	      0.00000000	      0.00000000	      0.00000000	      0.00000000	      0.00000000	      0.00000000	      0.00000000	      0.00000000	      0.00000000
      0.46900000	     33.91732909	    610.36738753	     -2.27308087	      0.16165118	     -0.00200000	      0.25625038	      0.00000000	      0.63386369	      0.00000000	      0.00000000	      0.00000000	      0.00000000	      0.00000000	      0.00000000	      0.00000000	      0.00000000	      0.00000000	      0.00000000
      0.47000000	     34.10266116	    611.06717587	     -1.95590127	      0.16162737	     -0.00200000	      0.25645380	      0.00000000	      0.63357644	      0.00000000	      0.00000000	      0.00000000	      0.00000000	      0.00000000	      0.00000000	      0.00000000	      0.00000000	      0.00000000	      0.00000000
      0.47100000	     34.28652510	    611.76174879	     -1.63932296	      0.16160390	     -0.00200000	      0.25665758	      0.00000000	      0.63359817	      0.00000000	      0.00000000	      0.00000000	      0.00000000	      0.00000000	      0.00000000	      0.00000000	      0.00000000	      0.00000000	      0.00000000
